<mxfile host="app.diagrams.net" modified="2024-04-02T15:56:32.471Z" agent="Mozilla/5.0 (Windows NT 10.0; Win64; x64) AppleWebKit/537.36 (KHTML, like Gecko) Chrome/123.0.0.0 Safari/537.36 Edg/123.0.0.0" etag="dojer6ZiQHFFe0EdN_1u" version="24.2.1" type="device">
  <diagram name="Page-1" id="w_sVe9h6Erg7zfxZk2Vn">
    <mxGraphModel dx="1426" dy="785" grid="1" gridSize="10" guides="1" tooltips="1" connect="1" arrows="1" fold="1" page="1" pageScale="1" pageWidth="850" pageHeight="1100" background="none" math="0" shadow="0">
      <root>
        <mxCell id="0" />
        <mxCell id="1" parent="0" />
        <mxCell id="24UU5HveqanTPOSPNjTf-1" value="Game" style="swimlane;fontStyle=1;align=center;verticalAlign=top;childLayout=stackLayout;horizontal=1;startSize=26;horizontalStack=0;resizeParent=1;resizeParentMax=0;resizeLast=0;collapsible=1;marginBottom=0;whiteSpace=wrap;html=1;" parent="1" vertex="1">
          <mxGeometry x="80" y="180" width="200" height="294" as="geometry" />
        </mxCell>
        <mxCell id="24UU5HveqanTPOSPNjTf-2" value="+id: String (read-only)" style="text;strokeColor=none;fillColor=none;align=left;verticalAlign=top;spacingLeft=4;spacingRight=4;overflow=hidden;rotatable=0;points=[[0,0.5],[1,0.5]];portConstraint=eastwest;whiteSpace=wrap;html=1;" parent="24UU5HveqanTPOSPNjTf-1" vertex="1">
          <mxGeometry y="26" width="200" height="26" as="geometry" />
        </mxCell>
        <mxCell id="24UU5HveqanTPOSPNjTf-10" value="+pool: of teams (read-only)" style="text;strokeColor=none;fillColor=none;align=left;verticalAlign=top;spacingLeft=4;spacingRight=4;overflow=hidden;rotatable=0;points=[[0,0.5],[1,0.5]];portConstraint=eastwest;whiteSpace=wrap;html=1;" parent="24UU5HveqanTPOSPNjTf-1" vertex="1">
          <mxGeometry y="52" width="200" height="26" as="geometry" />
        </mxCell>
        <mxCell id="KCZI1uN9eoNdziW-oZWX-1" value="+amount of guesses&amp;nbsp;" style="text;strokeColor=none;fillColor=none;align=left;verticalAlign=top;spacingLeft=4;spacingRight=4;overflow=hidden;rotatable=0;points=[[0,0.5],[1,0.5]];portConstraint=eastwest;whiteSpace=wrap;html=1;" parent="24UU5HveqanTPOSPNjTf-1" vertex="1">
          <mxGeometry y="78" width="200" height="26" as="geometry" />
        </mxCell>
        <mxCell id="qJwV7eziEVDhRDihA2SV-5" value="correct answer" style="text;strokeColor=none;fillColor=none;align=left;verticalAlign=top;spacingLeft=4;spacingRight=4;overflow=hidden;rotatable=0;points=[[0,0.5],[1,0.5]];portConstraint=eastwest;whiteSpace=wrap;html=1;" vertex="1" parent="24UU5HveqanTPOSPNjTf-1">
          <mxGeometry y="104" width="200" height="26" as="geometry" />
        </mxCell>
        <mxCell id="24UU5HveqanTPOSPNjTf-11" value="+league(s) (read-only)" style="text;strokeColor=none;fillColor=none;align=left;verticalAlign=top;spacingLeft=4;spacingRight=4;overflow=hidden;rotatable=0;points=[[0,0.5],[1,0.5]];portConstraint=eastwest;whiteSpace=wrap;html=1;" parent="24UU5HveqanTPOSPNjTf-1" vertex="1">
          <mxGeometry y="130" width="200" height="26" as="geometry" />
        </mxCell>
        <mxCell id="24UU5HveqanTPOSPNjTf-12" value="+start: Date (read-only)" style="text;strokeColor=none;fillColor=none;align=left;verticalAlign=top;spacingLeft=4;spacingRight=4;overflow=hidden;rotatable=0;points=[[0,0.5],[1,0.5]];portConstraint=eastwest;whiteSpace=wrap;html=1;" parent="24UU5HveqanTPOSPNjTf-1" vertex="1">
          <mxGeometry y="156" width="200" height="26" as="geometry" />
        </mxCell>
        <mxCell id="24UU5HveqanTPOSPNjTf-13" value="+solved: Boolean (read-only)" style="text;strokeColor=none;fillColor=none;align=left;verticalAlign=top;spacingLeft=4;spacingRight=4;overflow=hidden;rotatable=0;points=[[0,0.5],[1,0.5]];portConstraint=eastwest;whiteSpace=wrap;html=1;" parent="24UU5HveqanTPOSPNjTf-1" vertex="1">
          <mxGeometry y="182" width="200" height="26" as="geometry" />
        </mxCell>
        <mxCell id="24UU5HveqanTPOSPNjTf-14" value="+guesses: List&amp;lt;Guess&amp;gt; (read-only)" style="text;strokeColor=none;fillColor=none;align=left;verticalAlign=top;spacingLeft=4;spacingRight=4;overflow=hidden;rotatable=0;points=[[0,0.5],[1,0.5]];portConstraint=eastwest;whiteSpace=wrap;html=1;" parent="24UU5HveqanTPOSPNjTf-1" vertex="1">
          <mxGeometry y="208" width="200" height="26" as="geometry" />
        </mxCell>
        <mxCell id="24UU5HveqanTPOSPNjTf-3" value="" style="line;strokeWidth=1;fillColor=none;align=left;verticalAlign=middle;spacingTop=-1;spacingLeft=3;spacingRight=3;rotatable=0;labelPosition=right;points=[];portConstraint=eastwest;strokeColor=inherit;" parent="24UU5HveqanTPOSPNjTf-1" vertex="1">
          <mxGeometry y="234" width="200" height="8" as="geometry" />
        </mxCell>
        <mxCell id="24UU5HveqanTPOSPNjTf-4" value="+Game (pool: String, length: int)" style="text;strokeColor=none;fillColor=none;align=left;verticalAlign=top;spacingLeft=4;spacingRight=4;overflow=hidden;rotatable=0;points=[[0,0.5],[1,0.5]];portConstraint=eastwest;whiteSpace=wrap;html=1;" parent="24UU5HveqanTPOSPNjTf-1" vertex="1">
          <mxGeometry y="242" width="200" height="26" as="geometry" />
        </mxCell>
        <mxCell id="24UU5HveqanTPOSPNjTf-15" value="+validate(text: string) Guess" style="text;strokeColor=none;fillColor=none;align=left;verticalAlign=top;spacingLeft=4;spacingRight=4;overflow=hidden;rotatable=0;points=[[0,0.5],[1,0.5]];portConstraint=eastwest;whiteSpace=wrap;html=1;" parent="24UU5HveqanTPOSPNjTf-1" vertex="1">
          <mxGeometry y="268" width="200" height="26" as="geometry" />
        </mxCell>
        <mxCell id="24UU5HveqanTPOSPNjTf-5" value="Guess" style="swimlane;fontStyle=1;align=center;verticalAlign=top;childLayout=stackLayout;horizontal=1;startSize=26;horizontalStack=0;resizeParent=1;resizeParentMax=0;resizeLast=0;collapsible=1;marginBottom=0;whiteSpace=wrap;html=1;" parent="1" vertex="1">
          <mxGeometry x="520" y="220" width="170" height="262" as="geometry" />
        </mxCell>
        <mxCell id="24UU5HveqanTPOSPNjTf-18" value="+ pick: Team (read-only)" style="text;strokeColor=none;fillColor=none;align=left;verticalAlign=top;spacingLeft=4;spacingRight=4;overflow=hidden;rotatable=0;points=[[0,0.5],[1,0.5]];portConstraint=eastwest;whiteSpace=wrap;html=1;" parent="24UU5HveqanTPOSPNjTf-5" vertex="1">
          <mxGeometry y="26" width="170" height="26" as="geometry" />
        </mxCell>
        <mxCell id="qJwV7eziEVDhRDihA2SV-30" value="+ secret: Team (read-only)" style="text;strokeColor=none;fillColor=none;align=left;verticalAlign=top;spacingLeft=4;spacingRight=4;overflow=hidden;rotatable=0;points=[[0,0.5],[1,0.5]];portConstraint=eastwest;whiteSpace=wrap;html=1;" vertex="1" parent="24UU5HveqanTPOSPNjTf-5">
          <mxGeometry y="52" width="170" height="26" as="geometry" />
        </mxCell>
        <mxCell id="qJwV7eziEVDhRDihA2SV-31" value="created: Instant (read-only)" style="text;strokeColor=none;fillColor=none;align=left;verticalAlign=top;spacingLeft=4;spacingRight=4;overflow=hidden;rotatable=0;points=[[0,0.5],[1,0.5]];portConstraint=eastwest;whiteSpace=wrap;html=1;" vertex="1" parent="24UU5HveqanTPOSPNjTf-5">
          <mxGeometry y="78" width="170" height="26" as="geometry" />
        </mxCell>
        <mxCell id="24UU5HveqanTPOSPNjTf-19" value="+content: String (read-only)" style="text;strokeColor=none;fillColor=none;align=left;verticalAlign=top;spacingLeft=4;spacingRight=4;overflow=hidden;rotatable=0;points=[[0,0.5],[1,0.5]];portConstraint=eastwest;whiteSpace=wrap;html=1;" parent="24UU5HveqanTPOSPNjTf-5" vertex="1">
          <mxGeometry y="104" width="170" height="26" as="geometry" />
        </mxCell>
        <mxCell id="24UU5HveqanTPOSPNjTf-6" value="+correct: Boolean (read-only)" style="text;strokeColor=none;fillColor=none;align=left;verticalAlign=top;spacingLeft=4;spacingRight=4;overflow=hidden;rotatable=0;points=[[0,0.5],[1,0.5]];portConstraint=eastwest;whiteSpace=wrap;html=1;" parent="24UU5HveqanTPOSPNjTf-5" vertex="1">
          <mxGeometry y="130" width="170" height="26" as="geometry" />
        </mxCell>
        <mxCell id="24UU5HveqanTPOSPNjTf-7" value="" style="line;strokeWidth=1;fillColor=none;align=left;verticalAlign=middle;spacingTop=-1;spacingLeft=3;spacingRight=3;rotatable=0;labelPosition=right;points=[];portConstraint=eastwest;strokeColor=inherit;" parent="24UU5HveqanTPOSPNjTf-5" vertex="1">
          <mxGeometry y="156" width="170" height="8" as="geometry" />
        </mxCell>
        <mxCell id="24UU5HveqanTPOSPNjTf-8" value="+correct: Boolean (read-only)" style="text;align=left;verticalAlign=top;spacingLeft=4;spacingRight=4;overflow=hidden;rotatable=0;points=[[0,0.5],[1,0.5]];portConstraint=eastwest;whiteSpace=wrap;html=1;" parent="24UU5HveqanTPOSPNjTf-5" vertex="1">
          <mxGeometry y="164" width="170" height="26" as="geometry" />
        </mxCell>
        <mxCell id="qJwV7eziEVDhRDihA2SV-28" value="+Guess (content: pick, secret, created)" style="text;align=left;verticalAlign=top;spacingLeft=4;spacingRight=4;overflow=hidden;rotatable=0;points=[[0,0.5],[1,0.5]];portConstraint=eastwest;whiteSpace=wrap;html=1;" vertex="1" parent="24UU5HveqanTPOSPNjTf-5">
          <mxGeometry y="190" width="170" height="42" as="geometry" />
        </mxCell>
        <mxCell id="qJwV7eziEVDhRDihA2SV-29" value="+Guess (content: pick, secret)" style="text;align=left;verticalAlign=top;spacingLeft=4;spacingRight=4;overflow=hidden;rotatable=0;points=[[0,0.5],[1,0.5]];portConstraint=eastwest;whiteSpace=wrap;html=1;" vertex="1" parent="24UU5HveqanTPOSPNjTf-5">
          <mxGeometry y="232" width="170" height="30" as="geometry" />
        </mxCell>
        <mxCell id="24UU5HveqanTPOSPNjTf-23" value="" style="endArrow=diamondThin;endFill=1;endSize=18;html=1;rounded=0;exitX=0;exitY=0.5;exitDx=0;exitDy=0;entryX=1;entryY=0.5;entryDx=0;entryDy=0;strokeWidth=1;elbow=vertical;" parent="1" edge="1">
          <mxGeometry width="160" relative="1" as="geometry">
            <mxPoint x="520" y="270" as="sourcePoint" />
            <mxPoint x="280" y="374" as="targetPoint" />
          </mxGeometry>
        </mxCell>
        <mxCell id="24UU5HveqanTPOSPNjTf-24" value="A game has zero to eight guesses,&lt;br style=&quot;font-size: 12px;&quot;&gt;recorded against an unknown sports team." style="edgeLabel;html=1;align=center;verticalAlign=middle;resizable=0;points=[];fontSize=12;" parent="24UU5HveqanTPOSPNjTf-23" vertex="1" connectable="0">
          <mxGeometry x="0.2472" y="2" relative="1" as="geometry">
            <mxPoint x="29" y="-19" as="offset" />
          </mxGeometry>
        </mxCell>
        <mxCell id="24UU5HveqanTPOSPNjTf-25" value="A game is initiated with random&amp;nbsp;&lt;br style=&quot;font-size: 13px;&quot;&gt;generation of a sports team from &lt;br&gt;the selected league(s) by&lt;br style=&quot;font-size: 13px;&quot;&gt;a web service, which then returns&lt;br style=&quot;font-size: 13px;&quot;&gt;an object of this type." style="text;html=1;align=center;verticalAlign=middle;resizable=0;points=[];autosize=1;strokeColor=none;fillColor=none;fontSize=13;" parent="1" vertex="1">
          <mxGeometry x="80" y="90" width="220" height="90" as="geometry" />
        </mxCell>
        <mxCell id="qJwV7eziEVDhRDihA2SV-1" value="Team" style="swimlane;whiteSpace=wrap;html=1;" vertex="1" parent="1">
          <mxGeometry x="280" y="500" width="200" height="200" as="geometry" />
        </mxCell>
        <mxCell id="qJwV7eziEVDhRDihA2SV-14" value="+name: String (read-only)" style="text;strokeColor=none;fillColor=none;align=left;verticalAlign=top;spacingLeft=4;spacingRight=4;overflow=hidden;rotatable=0;points=[[0,0.5],[1,0.5]];portConstraint=eastwest;whiteSpace=wrap;html=1;" vertex="1" parent="qJwV7eziEVDhRDihA2SV-1">
          <mxGeometry y="24" width="200" height="26" as="geometry" />
        </mxCell>
        <mxCell id="qJwV7eziEVDhRDihA2SV-15" value="+locatoin: String (read-only)" style="text;strokeColor=none;fillColor=none;align=left;verticalAlign=top;spacingLeft=4;spacingRight=4;overflow=hidden;rotatable=0;points=[[0,0.5],[1,0.5]];portConstraint=eastwest;whiteSpace=wrap;html=1;" vertex="1" parent="qJwV7eziEVDhRDihA2SV-1">
          <mxGeometry y="50" width="200" height="26" as="geometry" />
        </mxCell>
        <mxCell id="qJwV7eziEVDhRDihA2SV-16" value="+year created: int (read-only)" style="text;strokeColor=none;fillColor=none;align=left;verticalAlign=top;spacingLeft=4;spacingRight=4;overflow=hidden;rotatable=0;points=[[0,0.5],[1,0.5]];portConstraint=eastwest;whiteSpace=wrap;html=1;" vertex="1" parent="qJwV7eziEVDhRDihA2SV-1">
          <mxGeometry y="76" width="200" height="26" as="geometry" />
        </mxCell>
        <mxCell id="qJwV7eziEVDhRDihA2SV-17" value="+primary color: String (read-only)" style="text;strokeColor=none;fillColor=none;align=left;verticalAlign=top;spacingLeft=4;spacingRight=4;overflow=hidden;rotatable=0;points=[[0,0.5],[1,0.5]];portConstraint=eastwest;whiteSpace=wrap;html=1;" vertex="1" parent="qJwV7eziEVDhRDihA2SV-1">
          <mxGeometry y="102" width="200" height="26" as="geometry" />
        </mxCell>
        <mxCell id="qJwV7eziEVDhRDihA2SV-18" value="+id: String (read-only)" style="text;strokeColor=none;fillColor=none;align=left;verticalAlign=top;spacingLeft=4;spacingRight=4;overflow=hidden;rotatable=0;points=[[0,0.5],[1,0.5]];portConstraint=eastwest;whiteSpace=wrap;html=1;" vertex="1" parent="qJwV7eziEVDhRDihA2SV-1">
          <mxGeometry y="128" width="200" height="26" as="geometry" />
        </mxCell>
        <mxCell id="qJwV7eziEVDhRDihA2SV-2" value="League" style="swimlane;whiteSpace=wrap;html=1;" vertex="1" parent="1">
          <mxGeometry x="570" y="510" width="200" height="200" as="geometry" />
        </mxCell>
        <mxCell id="qJwV7eziEVDhRDihA2SV-6" value="+id: String (read-only)" style="text;strokeColor=none;fillColor=none;align=left;verticalAlign=top;spacingLeft=4;spacingRight=4;overflow=hidden;rotatable=0;points=[[0,0.5],[1,0.5]];portConstraint=eastwest;whiteSpace=wrap;html=1;" vertex="1" parent="qJwV7eziEVDhRDihA2SV-2">
          <mxGeometry y="20" width="200" height="26" as="geometry" />
        </mxCell>
        <mxCell id="qJwV7eziEVDhRDihA2SV-7" value="+sport: String (read-only)" style="text;strokeColor=none;fillColor=none;align=left;verticalAlign=top;spacingLeft=4;spacingRight=4;overflow=hidden;rotatable=0;points=[[0,0.5],[1,0.5]];portConstraint=eastwest;whiteSpace=wrap;html=1;" vertex="1" parent="qJwV7eziEVDhRDihA2SV-2">
          <mxGeometry y="44" width="200" height="26" as="geometry" />
        </mxCell>
        <mxCell id="qJwV7eziEVDhRDihA2SV-8" value="+name: String (read-only)" style="text;strokeColor=none;fillColor=none;align=left;verticalAlign=top;spacingLeft=4;spacingRight=4;overflow=hidden;rotatable=0;points=[[0,0.5],[1,0.5]];portConstraint=eastwest;whiteSpace=wrap;html=1;" vertex="1" parent="qJwV7eziEVDhRDihA2SV-2">
          <mxGeometry y="70" width="200" height="26" as="geometry" />
        </mxCell>
        <mxCell id="qJwV7eziEVDhRDihA2SV-13" value="+teams: List&amp;lt;Team&amp;gt; (read-only)&amp;nbsp;" style="text;strokeColor=none;fillColor=none;align=left;verticalAlign=top;spacingLeft=4;spacingRight=4;overflow=hidden;rotatable=0;points=[[0,0.5],[1,0.5]];portConstraint=eastwest;whiteSpace=wrap;html=1;" vertex="1" parent="qJwV7eziEVDhRDihA2SV-2">
          <mxGeometry y="96" width="200" height="26" as="geometry" />
        </mxCell>
        <mxCell id="qJwV7eziEVDhRDihA2SV-3" value="" style="endArrow=none;html=1;rounded=0;entryX=1.006;entryY=-0.169;entryDx=0;entryDy=0;entryPerimeter=0;" edge="1" parent="1" source="qJwV7eziEVDhRDihA2SV-1" target="24UU5HveqanTPOSPNjTf-4">
          <mxGeometry width="50" height="50" relative="1" as="geometry">
            <mxPoint x="400" y="500" as="sourcePoint" />
            <mxPoint x="450" y="450" as="targetPoint" />
          </mxGeometry>
        </mxCell>
        <mxCell id="qJwV7eziEVDhRDihA2SV-4" value="" style="endArrow=none;html=1;rounded=0;entryX=0;entryY=0.5;entryDx=0;entryDy=0;exitX=0.5;exitY=0;exitDx=0;exitDy=0;" edge="1" parent="1" source="qJwV7eziEVDhRDihA2SV-1" target="24UU5HveqanTPOSPNjTf-6">
          <mxGeometry width="50" height="50" relative="1" as="geometry">
            <mxPoint x="400" y="500" as="sourcePoint" />
            <mxPoint x="450" y="450" as="targetPoint" />
          </mxGeometry>
        </mxCell>
        <mxCell id="qJwV7eziEVDhRDihA2SV-21" value="" style="endArrow=diamondThin;endFill=1;endSize=24;html=1;rounded=0;entryX=0;entryY=0.5;entryDx=0;entryDy=0;" edge="1" parent="1" target="qJwV7eziEVDhRDihA2SV-6">
          <mxGeometry width="160" relative="1" as="geometry">
            <mxPoint x="480" y="540" as="sourcePoint" />
            <mxPoint x="570" y="490" as="targetPoint" />
          </mxGeometry>
        </mxCell>
      </root>
    </mxGraphModel>
  </diagram>
</mxfile>
